<svg xmlns="http://www.w3.org/2000/svg" width="1200" height="675" viewBox="0 0 1200 675" role="img" aria-label="Mofei Remote Card preview">
  <rect width="1200" height="675" fill="#101820"/>
  <rect x="110" y="70" width="980" height="535" rx="28" fill="#f7f7f2"/>
  <rect x="150" y="115" width="900" height="70" rx="18" fill="#222831"/>
  <text x="600" y="160" text-anchor="middle" font-family="Arial, sans-serif" font-size="32" fill="#ffffff">Mofei Remote Card</text>
  <g font-family="Arial, sans-serif" font-size="28" text-anchor="middle">
    <rect x="170" y="230" width="190" height="88" rx="16" fill="#d84830"/>
    <text x="265" y="283" fill="#ffffff">Scene</text>
    <rect x="395" y="230" width="190" height="88" rx="16" fill="#1f7a8c"/>
    <text x="490" y="283" fill="#ffffff">Media</text>
    <rect x="620" y="230" width="190" height="88" rx="16" fill="#2f4858"/>
    <text x="715" y="283" fill="#ffffff">Facility</text>
    <rect x="845" y="230" width="190" height="88" rx="16" fill="#f2a541"/>
    <text x="940" y="283" fill="#202020">KTV</text>
    <rect x="170" y="360" width="190" height="88" rx="16" fill="#ffffff" stroke="#d0d4d8" stroke-width="3"/>
    <text x="265" y="413" fill="#202020">Cinema</text>
    <rect x="395" y="360" width="190" height="88" rx="16" fill="#ffffff" stroke="#d0d4d8" stroke-width="3"/>
    <text x="490" y="413" fill="#202020">Music</text>
    <rect x="620" y="360" width="190" height="88" rx="16" fill="#ffffff" stroke="#d0d4d8" stroke-width="3"/>
    <text x="715" y="413" fill="#202020">Lights</text>
    <rect x="845" y="360" width="190" height="88" rx="16" fill="#ffffff" stroke="#d0d4d8" stroke-width="3"/>
    <text x="940" y="413" fill="#202020">Power</text>
  </g>
</svg>

